{
	"asset":{
		"generator":"Khronos glTF Blender I/O v4.4.56",
		"version":"2.0"
	},
	"extensionsUsed":[
		"KHR_materials_specular"
	],
	"scene":0,
	"scenes":[
		{
			"name":"Scene",
			"nodes":[
				0
			]
		}
	],
	"nodes":[
		{
			"mesh":0,
			"name":"Model",
			"rotation":[
				0.7071068286895752,
				0,
				0,
				0.7071068286895752
			],
			"translation":[
				0,
				3.4234116077423096,
				0
			]
		}
	],
	"materials":[
		{
			"doubleSided":true,
			"extensions":{
				"KHR_materials_specular":{
					"specularFactor":0
				}
			},
			"name":"Pamant"
		},
		{
			"doubleSided":true,
			"name":"Beton - aparent decofrat - panouri",
			"pbrMetallicRoughness":{
				"roughnessFactor":0.8999999761581421
			}
		},
		{
			"doubleSided":true,
			"extensions":{
				"KHR_materials_specular":{
					"specularColorFactor":[
						1.2400000095367432,
						1.2400000095367432,
						1.2400000095367432
					]
				}
			},
			"name":"Hidroizolatie - bituminoasa",
			"pbrMetallicRoughness":{
				"roughnessFactor":0.9367544651031494
			}
		},
		{
			"doubleSided":true,
			"extensions":{
				"KHR_materials_specular":{
					"specularFactor":0.3199999928474426
				}
			},
			"name":"Tencuiala decorativa - alba rugoasa"
		},
		{
			"doubleSided":true,
			"extensions":{
				"KHR_materials_specular":{
					"specularColorFactor":[
						2.0,
						2.0,
						2.0
					]
				}
			},
			"name":"Beton - cofraj vertical",
			"pbrMetallicRoughness":{
				"roughnessFactor":0.8999999761581421
			}
		},
		{
			"doubleSided":true,
			"extensions":{
				"KHR_materials_specular":{
					"specularFactor":0.4000000059604645
				}
			},
			"name":"Vopsea - bej nisip",
			"pbrMetallicRoughness":{
				"baseColorFactor":[
					0.8274509906768799,
					0.7803921699523926,
					0.6705882549285889,
					1
				],
				"roughnessFactor":0.9151471853256226
			}
		},
		{
			"doubleSided":true,
			"extensions":{
				"KHR_materials_specular":{
					"specularFactor":0.5199999809265137
				}
			},
			"name":"Tencuiala decorativa - gri rugoasa",
			"pbrMetallicRoughness":{
				"roughnessFactor":0.9083485007286072
			}
		},
		{
			"doubleSided":true,
			"extensions":{
				"KHR_materials_specular":{
					"specularFactor":0.3199999928474426
				}
			},
			"name":"Izolatie - celuloza",
			"pbrMetallicRoughness":{
				"roughnessFactor":0.9020203948020935
			}
		},
		{
			"doubleSided":true,
			"extensions":{
				"KHR_materials_specular":{
					"specularColorFactor":[
						1.1200000047683716,
						1.1200000047683716,
						1.1200000047683716
					]
				}
			},
			"name":"Beton - usor",
			"pbrMetallicRoughness":{
				"roughnessFactor":0.9083485007286072
			}
		},
		{
			"doubleSided":true,
			"extensions":{
				"KHR_materials_specular":{
					"specularFactor":0.4000000059604645
				}
			},
			"name":"Vopsea - albastru pastel",
			"pbrMetallicRoughness":{
				"baseColorFactor":[
					0.6352941393852234,
					0.772549033164978,
					0.843137264251709,
					1
				],
				"roughnessFactor":0.9151471853256226
			}
		},
		{
			"doubleSided":true,
			"extensions":{
				"KHR_materials_specular":{
					"specularFactor":0.4000000059604645
				}
			},
			"name":"Paint - Sand Beige",
			"pbrMetallicRoughness":{
				"baseColorFactor":[
					0.8274509906768799,
					0.7803921699523926,
					0.6705882549285889,
					1
				],
				"roughnessFactor":0.9151471853256226
			}
		},
		{
			"doubleSided":true,
			"extensions":{
				"KHR_materials_specular":{
					"specularFactor":0
				}
			},
			"name":"Caramida - rosie"
		},
		{
			"doubleSided":true,
			"extensions":{
				"KHR_materials_specular":{
					"specularFactor":0.4000000059604645
				}
			},
			"name":"Vopsea - alb titaniu",
			"pbrMetallicRoughness":{
				"roughnessFactor":0.9151471853256226
			}
		},
		{
			"doubleSided":true,
			"extensions":{
				"KHR_materials_specular":{
					"specularFactor":0.03999999910593033
				}
			},
			"name":"Tencuiala decorativa - alba neteda",
			"pbrMetallicRoughness":{
				"roughnessFactor":0.9599999785423279
			}
		},
		{
			"doubleSided":true,
			"extensions":{
				"KHR_materials_specular":{
					"specularFactor":0.6399999856948853
				}
			},
			"name":"Izolatie - fibra de sticla",
			"pbrMetallicRoughness":{
				"roughnessFactor":0.9225403070449829
			}
		},
		{
			"alphaMode":"MASK",
			"doubleSided":true,
			"extensions":{
				"KHR_materials_specular":{
					"specularFactor":0
				}
			},
			"name":"Aer",
			"pbrMetallicRoughness":{
				"baseColorFactor":[
					1,
					1,
					1,
					0
				]
			}
		},
		{
			"doubleSided":true,
			"extensions":{
				"KHR_materials_specular":{
					"specularFactor":0.4000000059604645
				}
			},
			"name":"Vopsea - celadon",
			"pbrMetallicRoughness":{
				"baseColorFactor":[
					0.6549019813537598,
					0.7764706015586853,
					0.6509804129600525,
					1
				],
				"roughnessFactor":0.9151471853256226
			}
		},
		{
			"doubleSided":true,
			"extensions":{
				"KHR_materials_specular":{
					"specularFactor":0
				}
			},
			"name":"Placi ceramice - gri 60x60"
		},
		{
			"doubleSided":true,
			"extensions":{
				"KHR_materials_specular":{
					"specularFactor":0.7599999904632568
				}
			},
			"name":"Placaj - OSB"
		},
		{
			"doubleSided":true,
			"extensions":{
				"KHR_materials_specular":{
					"specularFactor":0.4000000059604645
				}
			},
			"name":"Folie anti-condens",
			"pbrMetallicRoughness":{
				"baseColorFactor":[
					0.4431372582912445,
					0.4431372582912445,
					0.4431372582912445,
					1
				],
				"roughnessFactor":0.9151471853256226
			}
		},
		{
			"doubleSided":true,
			"extensions":{
				"KHR_materials_specular":{
					"specularFactor":0
				}
			},
			"name":"Caramida - goluri verticale"
		},
		{
			"doubleSided":true,
			"extensions":{
				"KHR_materials_specular":{
					"specularFactor":0.7599999904632568
				}
			},
			"name":"Tratat"
		},
		{
			"doubleSided":true,
			"extensions":{
				"KHR_materials_specular":{
					"specularFactor":0.7599999904632568
				}
			},
			"name":"Rindeluit"
		},
		{
			"doubleSided":true,
			"extensions":{
				"KHR_materials_specular":{
					"specularFactor":0.4000000059604645
				}
			},
			"name":"Vopsea - gri deschis",
			"pbrMetallicRoughness":{
				"baseColorFactor":[
					0.658823549747467,
					0.658823549747467,
					0.658823549747467,
					1
				],
				"roughnessFactor":0.9151471853256226
			}
		},
		{
			"doubleSided":true,
			"extensions":{
				"KHR_materials_specular":{
					"specularFactor":0.7599999904632568
				}
			},
			"name":"Parchet lamelar 02"
		},
		{
			"doubleSided":true,
			"extensions":{
				"KHR_materials_specular":{
					"specularColorFactor":[
						1.440000057220459,
						1.440000057220459,
						1.440000057220459
					]
				}
			},
			"name":"Membrana hidroizolanta, neagra",
			"pbrMetallicRoughness":{
				"baseColorFactor":[
					0,
					0,
					0,
					1
				],
				"roughnessFactor":0.9151471853256226
			}
		},
		{
			"doubleSided":true,
			"extensions":{
				"KHR_materials_specular":{
					"specularFactor":0.4000000059604645
				}
			},
			"name":"Pietris"
		},
		{
			"doubleSided":true,
			"extensions":{
				"KHR_materials_specular":{
					"specularFactor":0.7599999904632568
				}
			},
			"name":"Parchet lamelar 03"
		},
		{
			"doubleSided":true,
			"extensions":{
				"KHR_materials_specular":{
					"specularColorFactor":[
						1.0399999618530273,
						1.0399999618530273,
						1.0399999618530273
					]
				}
			},
			"name":"Beton - caroiaj 100x100",
			"pbrMetallicRoughness":{
				"roughnessFactor":0.6683375239372253
			}
		},
		{
			"doubleSided":true,
			"extensions":{
				"KHR_materials_specular":{
					"specularFactor":0
				}
			},
			"name":"Iarba - verde-maroniu"
		},
		{
			"doubleSided":true,
			"extensions":{
				"KHR_materials_specular":{
					"specularFactor":0
				}
			},
			"name":"Piatra - calcar"
		},
		{
			"doubleSided":true,
			"extensions":{
				"KHR_materials_specular":{
					"specularFactor":0.7599999904632568
				}
			},
			"name":"Tigla rosie"
		},
		{
			"doubleSided":true,
			"extensions":{
				"KHR_materials_specular":{
					"specularFactor":0.7599999904632568
				}
			},
			"name":"Nerindelut"
		},
		{
			"doubleSided":true,
			"extensions":{
				"KHR_materials_specular":{
					"specularColorFactor":[
						2.0,
						2.0,
						2.0
					]
				}
			},
			"name":"Metal - Otel galvanizat",
			"pbrMetallicRoughness":{
				"roughnessFactor":0.699999988079071
			}
		},
		{
			"doubleSided":true,
			"extensions":{
				"KHR_materials_specular":{
					"specularColorFactor":[
						2.0,
						2.0,
						2.0
					]
				}
			},
			"name":"Metal - aluminiu",
			"pbrMetallicRoughness":{
				"baseColorFactor":[
					0.9177691340446472,
					0.8810712099075317,
					0.8810712099075317,
					1
				],
				"roughnessFactor":0.6806256175041199
			}
		},
		{
			"doubleSided":true,
			"extensions":{
				"KHR_materials_specular":{
					"specularFactor":0.4000000059604645
				}
			},
			"name":"Vopsea - antracit",
			"pbrMetallicRoughness":{
				"baseColorFactor":[
					0.18039216101169586,
					0.18039216101169586,
					0.18039216101169586,
					1
				],
				"roughnessFactor":0.9151471853256226
			}
		},
		{
			"alphaMode":"BLEND",
			"doubleSided":true,
			"extensions":{
				"KHR_materials_specular":{
					"specularColorFactor":[
						1.4800000190734863,
						1.4800000190734863,
						1.4800000190734863
					]
				}
			},
			"name":"Metal - plasa de sarma ",
			"pbrMetallicRoughness":{
				"roughnessFactor":0.6535898447036743
			}
		},
		{
			"doubleSided":true,
			"extensions":{
				"KHR_materials_specular":{
					"specularColorFactor":[
						2.0,
						2.0,
						2.0
					]
				}
			},
			"name":"Metal - fier"
		},
		{
			"alphaMode":"BLEND",
			"doubleSided":true,
			"extensions":{
				"KHR_materials_specular":{
					"specularColorFactor":[
						2.0,
						2.0,
						2.0
					]
				}
			},
			"name":"Sticla - clara  ",
			"pbrMetallicRoughness":{
				"baseColorFactor":[
					0.9411764740943909,
					0.9686274528503418,
					0.9529411792755127,
					0.3100000023841858
				],
				"roughnessFactor":0.1082601249217987
			}
		},
		{
			"doubleSided":true,
			"extensions":{
				"KHR_materials_specular":{
					"specularColorFactor":[
						1.440000057220459,
						1.440000057220459,
						1.440000057220459
					]
				}
			},
			"name":"Vopsea - negru tamplarii",
			"pbrMetallicRoughness":{
				"baseColorFactor":[
					0,
					0,
					0,
					1
				],
				"roughnessFactor":0.9151471853256226
			}
		},
		{
			"doubleSided":true,
			"extensions":{
				"KHR_materials_specular":{
					"specularFactor":0
				}
			},
			"name":"PEN_MATERIAL2",
			"pbrMetallicRoughness":{
				"baseColorFactor":[
					0.15259021520614624,
					0.15259021520614624,
					0.15259021520614624,
					1
				]
			}
		},
		{
			"doubleSided":true,
			"extensions":{
				"KHR_materials_specular":{
					"specularColorFactor":[
						1.2000000476837158,
						1.2000000476837158,
						1.2000000476837158
					]
				}
			},
			"name":"Plastic - laminat",
			"pbrMetallicRoughness":{
				"baseColorFactor":[
					0.9019607901573181,
					0.7764706015586853,
					0.6509804129600525,
					1
				],
				"roughnessFactor":0.7950609922409058
			}
		},
		{
			"doubleSided":true,
			"extensions":{
				"KHR_materials_specular":{
					"specularColorFactor":[
						2.0,
						2.0,
						2.0
					]
				}
			},
			"name":"Beton - aparent decofrat - distantieri"
		},
		{
			"doubleSided":true,
			"extensions":{
				"KHR_materials_specular":{
					"specularFactor":0.3199999928474426
				}
			},
			"name":"Tencuiala decorativa - galbena rugoasa"
		}
	],
	"meshes":[
		{
			"name":"Model",
			"primitives":[
				{
					"attributes":{
						"POSITION":0,
						"NORMAL":1,
						"TEXCOORD_0":2
					},
					"indices":3,
					"material":0
				},
				{
					"attributes":{
						"POSITION":4,
						"NORMAL":5,
						"TEXCOORD_0":6
					},
					"indices":7,
					"material":1
				},
				{
					"attributes":{
						"POSITION":8,
						"NORMAL":9,
						"TEXCOORD_0":10
					},
					"indices":11,
					"material":2
				},
				{
					"attributes":{
						"POSITION":12,
						"NORMAL":13,
						"TEXCOORD_0":14
					},
					"indices":15,
					"material":3
				},
				{
					"attributes":{
						"POSITION":16,
						"NORMAL":17,
						"TEXCOORD_0":18
					},
					"indices":19,
					"material":4
				},
				{
					"attributes":{
						"POSITION":20,
						"NORMAL":21,
						"TEXCOORD_0":22
					},
					"indices":23,
					"material":5
				},
				{
					"attributes":{
						"POSITION":24,
						"NORMAL":25,
						"TEXCOORD_0":26
					},
					"indices":27,
					"material":6
				},
				{
					"attributes":{
						"POSITION":28,
						"NORMAL":29,
						"TEXCOORD_0":30
					},
					"indices":31,
					"material":7
				},
				{
					"attributes":{
						"POSITION":32,
						"NORMAL":33,
						"TEXCOORD_0":34
					},
					"indices":35,
					"material":8
				},
				{
					"attributes":{
						"POSITION":36,
						"NORMAL":37,
						"TEXCOORD_0":38
					},
					"indices":39,
					"material":9
				},
				{
					"attributes":{
						"POSITION":40,
						"NORMAL":41,
						"TEXCOORD_0":42
					},
					"indices":43,
					"material":10
				},
				{
					"attributes":{
						"POSITION":44,
						"NORMAL":45,
						"TEXCOORD_0":46
					},
					"indices":47,
					"material":11
				},
				{
					"attributes":{
						"POSITION":48,
						"NORMAL":49,
						"TEXCOORD_0":50
					},
					"indices":51,
					"material":12
				},
				{
					"attributes":{
						"POSITION":52,
						"NORMAL":53,
						"TEXCOORD_0":54
					},
					"indices":55,
					"material":13
				},
				{
					"attributes":{
						"POSITION":56,
						"NORMAL":57,
						"TEXCOORD_0":58
					},
					"indices":59,
					"material":14
				},
				{
					"attributes":{
						"POSITION":60,
						"NORMAL":61,
						"TEXCOORD_0":62
					},
					"indices":63,
					"material":15
				},
				{
					"attributes":{
						"POSITION":64,
						"NORMAL":65,
						"TEXCOORD_0":66
					},
					"indices":67,
					"material":16
				},
				{
					"attributes":{
						"POSITION":68,
						"NORMAL":69,
						"TEXCOORD_0":70
					},
					"indices":71,
					"material":17
				},
				{
					"attributes":{
						"POSITION":72,
						"NORMAL":73,
						"TEXCOORD_0":74
					},
					"indices":75,
					"material":18
				},
				{
					"attributes":{
						"POSITION":76,
						"NORMAL":77,
						"TEXCOORD_0":78
					},
					"indices":79,
					"material":19
				},
				{
					"attributes":{
						"POSITION":80,
						"NORMAL":81,
						"TEXCOORD_0":82
					},
					"indices":83,
					"material":20
				},
				{
					"attributes":{
						"POSITION":84,
						"NORMAL":85,
						"TEXCOORD_0":86
					},
					"indices":87,
					"material":21
				},
				{
					"attributes":{
						"POSITION":88,
						"NORMAL":89,
						"TEXCOORD_0":90
					},
					"indices":91,
					"material":22
				},
				{
					"attributes":{
						"POSITION":92,
						"NORMAL":93,
						"TEXCOORD_0":94
					},
					"indices":95,
					"material":23
				},
				{
					"attributes":{
						"POSITION":96,
						"NORMAL":97,
						"TEXCOORD_0":98
					},
					"indices":99,
					"material":24
				},
				{
					"attributes":{
						"POSITION":100,
						"NORMAL":101,
						"TEXCOORD_0":102
					},
					"indices":103,
					"material":25
				},
				{
					"attributes":{
						"POSITION":104,
						"NORMAL":105,
						"TEXCOORD_0":106
					},
					"indices":107,
					"material":26
				},
				{
					"attributes":{
						"POSITION":108,
						"NORMAL":109,
						"TEXCOORD_0":110
					},
					"indices":111,
					"material":27
				},
				{
					"attributes":{
						"POSITION":112,
						"NORMAL":113,
						"TEXCOORD_0":114
					},
					"indices":115,
					"material":28
				},
				{
					"attributes":{
						"POSITION":116,
						"NORMAL":117,
						"TEXCOORD_0":118
					},
					"indices":119,
					"material":29
				},
				{
					"attributes":{
						"POSITION":120,
						"NORMAL":121,
						"TEXCOORD_0":122
					},
					"indices":123,
					"material":30
				},
				{
					"attributes":{
						"POSITION":124,
						"NORMAL":125,
						"TEXCOORD_0":126
					},
					"indices":127,
					"material":31
				},
				{
					"attributes":{
						"POSITION":128,
						"NORMAL":129,
						"TEXCOORD_0":130
					},
					"indices":131,
					"material":32
				},
				{
					"attributes":{
						"POSITION":132,
						"NORMAL":133,
						"TEXCOORD_0":134
					},
					"indices":135,
					"material":33
				},
				{
					"attributes":{
						"POSITION":136,
						"NORMAL":137,
						"TEXCOORD_0":138
					},
					"indices":139,
					"material":34
				},
				{
					"attributes":{
						"POSITION":140,
						"NORMAL":141,
						"TEXCOORD_0":142
					},
					"indices":143,
					"material":35
				},
				{
					"attributes":{
						"POSITION":144,
						"NORMAL":145,
						"TEXCOORD_0":146
					},
					"indices":147,
					"material":36
				},
				{
					"attributes":{
						"POSITION":148,
						"NORMAL":149,
						"TEXCOORD_0":150
					},
					"indices":151,
					"material":37
				},
				{
					"attributes":{
						"POSITION":152,
						"NORMAL":153,
						"TEXCOORD_0":154
					},
					"indices":155,
					"material":38
				},
				{
					"attributes":{
						"POSITION":156,
						"NORMAL":157,
						"TEXCOORD_0":158
					},
					"indices":159,
					"material":39
				},
				{
					"attributes":{
						"POSITION":160,
						"NORMAL":161,
						"TEXCOORD_0":162
					},
					"indices":163,
					"material":40
				},
				{
					"attributes":{
						"POSITION":164,
						"NORMAL":165,
						"TEXCOORD_0":166
					},
					"indices":167,
					"material":41
				},
				{
					"attributes":{
						"POSITION":168,
						"NORMAL":169,
						"TEXCOORD_0":170
					},
					"indices":171,
					"material":42
				},
				{
					"attributes":{
						"POSITION":172,
						"NORMAL":173,
						"TEXCOORD_0":174
					},
					"indices":175,
					"material":43
				}
			]
		}
	],
	"accessors":[
		{
			"bufferView":0,
			"componentType":5126,
			"count":4854,
			"max":[
				13.069842338562012,
				10.637824058532715,
				8.8043851852417
			],
			"min":[
				-15.783764839172363,
				-9.36220645904541,
				2.5543859004974365
			],
			"type":"VEC3"
		},
		{
			"bufferView":1,
			"componentType":5126,
			"count":4854,
			"type":"VEC3"
		},
		{
			"bufferView":2,
			"componentType":5126,
			"count":4854,
			"type":"VEC2"
		},
		{
			"bufferView":3,
			"componentType":5123,
			"count":9117,
			"type":"SCALAR"
		},
		{
			"bufferView":4,
			"componentType":5126,
			"count":3773,
			"max":[
				9.566241264343262,
				3.337805986404419,
				5.5493855476379395
			],
			"min":[
				-3.434216022491455,
				-8.412163734436035,
				2.4143857955932617
			],
			"type":"VEC3"
		},
		{
			"bufferView":5,
			"componentType":5126,
			"count":3773,
			"type":"VEC3"
		},
		{
			"bufferView":6,
			"componentType":5126,
			"count":3773,
			"type":"VEC2"
		},
		{
			"bufferView":7,
			"componentType":5123,
			"count":7005,
			"type":"SCALAR"
		},
		{
			"bufferView":8,
			"componentType":5126,
			"count":9879,
			"max":[
				10.168749809265137,
				7.440314769744873,
				6.699385643005371
			],
			"min":[
				-10.086255073547363,
				-8.41518497467041,
				2.5316877365112305
			],
			"type":"VEC3"
		},
		{
			"bufferView":9,
			"componentType":5126,
			"count":9879,
			"type":"VEC3"
		},
		{
			"bufferView":10,
			"componentType":5126,
			"count":9879,
			"type":"VEC2"
		},
		{
			"bufferView":11,
			"componentType":5123,
			"count":18384,
			"type":"SCALAR"
		},
		{
			"bufferView":12,
			"componentType":5126,
			"count":4945,
			"max":[
				10.036242485046387,
				7.307807445526123,
				5.5493855476379395
			],
			"min":[
				-9.953747749328613,
				-9.121148109436035,
				-4.794569969177246
			],
			"type":"VEC3"
		},
		{
			"bufferView":13,
			"componentType":5126,
			"count":4945,
			"type":"VEC3"
		},
		{
			"bufferView":14,
			"componentType":5126,
			"count":4945,
			"type":"VEC2"
		},
		{
			"bufferView":15,
			"componentType":5123,
			"count":12363,
			"type":"SCALAR"
		},
		{
			"bufferView":16,
			"componentType":5126,
			"count":17816,
			"max":[
				11.216235160827637,
				8.51676082611084,
				7.749385833740234
			],
			"min":[
				-11.155529975891113,
				-9.268548011779785,
				-4.035614013671875
			],
			"type":"VEC3"
		},
		{
			"bufferView":17,
			"componentType":5126,
			"count":17816,
			"type":"VEC3"
		},
		{
			"bufferView":18,
			"componentType":5126,
			"count":17816,
			"type":"VEC2"
		},
		{
			"bufferView":19,
			"componentType":5123,
			"count":36036,
			"type":"SCALAR"
		},
		{
			"bufferView":20,
			"componentType":5126,
			"count":10251,
			"max":[
				10.036242485046387,
				7.307807445526123,
				5.95188570022583
			],
			"min":[
				-9.953747749328613,
				-9.111687660217285,
				-4.795070648193359
			],
			"type":"VEC3"
		},
		{
			"bufferView":21,
			"componentType":5126,
			"count":10251,
			"type":"VEC3"
		},
		{
			"bufferView":22,
			"componentType":5126,
			"count":10251,
			"type":"VEC2"
		},
		{
			"bufferView":23,
			"componentType":5123,
			"count":16689,
			"type":"SCALAR"
		},
		{
			"bufferView":24,
			"componentType":5126,
			"count":5273,
			"max":[
				10.036242485046387,
				7.305305004119873,
				5.5493855476379395
			],
			"min":[
				-9.951245307922363,
				-9.111687660217285,
				-4.79757022857666
			],
			"type":"VEC3"
		},
		{
			"bufferView":25,
			"componentType":5126,
			"count":5273,
			"type":"VEC3"
		},
		{
			"bufferView":26,
			"componentType":5126,
			"count":5273,
			"type":"VEC2"
		},
		{
			"bufferView":27,
			"componentType":5123,
			"count":8625,
			"type":"SCALAR"
		},
		{
			"bufferView":28,
			"componentType":5126,
			"count":4760,
			"max":[
				10.036242485046387,
				7.292823314666748,
				5.5493855476379395
			],
			"min":[
				-9.938733100891113,
				-6.632164478302002,
				-4.7977705001831055
			],
			"type":"VEC3"
		},
		{
			"bufferView":29,
			"componentType":5126,
			"count":4760,
			"type":"VEC3"
		},
		{
			"bufferView":30,
			"componentType":5126,
			"count":4760,
			"type":"VEC2"
		},
		{
			"bufferView":31,
			"componentType":5123,
			"count":7494,
			"type":"SCALAR"
		},
		{
			"bufferView":32,
			"componentType":5126,
			"count":30024,
			"max":[
				10.171252250671387,
				7.442817211151123,
				7.5993852615356445
			],
			"min":[
				-10.083752632141113,
				-9.111687660217285,
				-4.797970771789551
			],
			"type":"VEC3"
		},
		{
			"bufferView":33,
			"componentType":5126,
			"count":30024,
			"type":"VEC3"
		},
		{
			"bufferView":34,
			"componentType":5126,
			"count":30024,
			"type":"VEC2"
		},
		{
			"bufferView":35,
			"componentType":5123,
			"count":51462,
			"type":"SCALAR"
		},
		{
			"bufferView":36,
			"componentType":5126,
			"count":10005,
			"max":[
				9.991229057312012,
				7.243323802947998,
				6.099385738372803
			],
			"min":[
				-9.892529487609863,
				-8.81166934967041,
				2.56418776512146
			],
			"type":"VEC3"
		},
		{
			"bufferView":37,
			"componentType":5126,
			"count":10005,
			"type":"VEC3"
		},
		{
			"bufferView":38,
			"componentType":5126,
			"count":10005,
			"type":"VEC2"
		},
		{
			"bufferView":39,
			"componentType":5123,
			"count":16377,
			"type":"SCALAR"
		},
		{
			"bufferView":40,
			"componentType":5126,
			"count":6841,
			"max":[
				10.036242485046387,
				7.307807445526123,
				5.5493855476379395
			],
			"min":[
				-9.456250190734863,
				-8.412163734436035,
				-4.035614013671875
			],
			"type":"VEC3"
		},
		{
			"bufferView":41,
			"componentType":5126,
			"count":6841,
			"type":"VEC3"
		},
		{
			"bufferView":42,
			"componentType":5126,
			"count":6841,
			"type":"VEC2"
		},
		{
			"bufferView":43,
			"componentType":5123,
			"count":11862,
			"type":"SCALAR"
		},
		{
			"bufferView":44,
			"componentType":5126,
			"count":575,
			"max":[
				5.26625394821167,
				0.23783040046691895,
				5.464385986328125
			],
			"min":[
				-1.133739948272705,
				-6.062187671661377,
				2.6643857955932617
			],
			"type":"VEC3"
		},
		{
			"bufferView":45,
			"componentType":5126,
			"count":575,
			"type":"VEC3"
		},
		{
			"bufferView":46,
			"componentType":5126,
			"count":575,
			"type":"VEC2"
		},
		{
			"bufferView":47,
			"componentType":5123,
			"count":1119,
			"type":"SCALAR"
		},
		{
			"bufferView":48,
			"componentType":5126,
			"count":9357,
			"max":[
				10.036242485046387,
				6.835303783416748,
				5.464385986328125
			],
			"min":[
				-9.473767280578613,
				-6.532188892364502,
				-4.035614013671875
			],
			"type":"VEC3"
		},
		{
			"bufferView":49,
			"componentType":5126,
			"count":9357,
			"type":"VEC3"
		},
		{
			"bufferView":50,
			"componentType":5126,
			"count":9357,
			"type":"VEC2"
		},
		{
			"bufferView":51,
			"componentType":5123,
			"count":17517,
			"type":"SCALAR"
		},
		{
			"bufferView":52,
			"componentType":5126,
			"count":19301,
			"max":[
				10.036242485046387,
				7.140815258026123,
				5.464385986328125
			],
			"min":[
				-9.786755561828613,
				-6.532188892364502,
				-3.3356142044067383
			],
			"type":"VEC3"
		},
		{
			"bufferView":53,
			"componentType":5126,
			"count":19301,
			"type":"VEC3"
		},
		{
			"bufferView":54,
			"componentType":5126,
			"count":19301,
			"type":"VEC2"
		},
		{
			"bufferView":55,
			"componentType":5123,
			"count":44880,
			"type":"SCALAR"
		},
		{
			"bufferView":56,
			"componentType":5126,
			"count":12460,
			"max":[
				10.036242485046387,
				7.290809154510498,
				5.464385986328125
			],
			"min":[
				-9.936779975891113,
				-6.632164478302002,
				-4.828269958496094
			],
			"type":"VEC3"
		},
		{
			"bufferView":57,
			"componentType":5126,
			"count":12460,
			"type":"VEC3"
		},
		{
			"bufferView":58,
			"componentType":5126,
			"count":12460,
			"type":"VEC2"
		},
		{
			"bufferView":59,
			"componentType":5123,
			"count":23463,
			"type":"SCALAR"
		},
		{
			"bufferView":60,
			"componentType":5126,
			"count":14171,
			"max":[
				10.866259574890137,
				8.13779354095459,
				3.014385938644409
			],
			"min":[
				-10.783764839172363,
				-7.362175464630127,
				-5.343100547790527
			],
			"type":"VEC3"
		},
		{
			"bufferView":61,
			"componentType":5126,
			"count":14171,
			"type":"VEC3"
		},
		{
			"bufferView":62,
			"componentType":5126,
			"count":14171,
			"type":"VEC2"
		},
		{
			"bufferView":63,
			"componentType":5123,
			"count":27792,
			"type":"SCALAR"
		},
		{
			"bufferView":64,
			"componentType":5126,
			"count":1330,
			"max":[
				2.216235637664795,
				6.827796459197998,
				2.5643858909606934
			],
			"min":[
				-7.683727741241455,
				-6.052177906036377,
				-3.3206143379211426
			],
			"type":"VEC3"
		},
		{
			"bufferView":65,
			"componentType":5126,
			"count":1330,
			"type":"VEC3"
		},
		{
			"bufferView":66,
			"componentType":5126,
			"count":1330,
			"type":"VEC2"
		},
		{
			"bufferView":67,
			"componentType":5123,
			"count":2247,
			"type":"SCALAR"
		},
		{
			"bufferView":68,
			"componentType":5126,
			"count":7462,
			"max":[
				5.286242961883545,
				7.140815258026123,
				2.5643858909606934
			],
			"min":[
				-7.683727741241455,
				-6.365166187286377,
				-3.3081140518188477
			],
			"type":"VEC3"
		},
		{
			"bufferView":69,
			"componentType":5126,
			"count":7462,
			"type":"VEC3"
		},
		{
			"bufferView":70,
			"componentType":5126,
			"count":7462,
			"type":"VEC2"
		},
		{
			"bufferView":71,
			"componentType":5123,
			"count":14610,
			"type":"SCALAR"
		},
		{
			"bufferView":72,
			"componentType":5126,
			"count":1214,
			"max":[
				10.036242485046387,
				7.290809154510498,
				-0.6217358708381653
			],
			"min":[
				-9.633740425109863,
				-6.513664722442627,
				-4.970871925354004
			],
			"type":"VEC3"
		},
		{
			"bufferView":73,
			"componentType":5126,
			"count":1214,
			"type":"VEC3"
		},
		{
			"bufferView":74,
			"componentType":5126,
			"count":1214,
			"type":"VEC2"
		},
		{
			"bufferView":75,
			"componentType":5123,
			"count":2208,
			"type":"SCALAR"
		},
		{
			"bufferView":76,
			"componentType":5126,
			"count":945,
			"max":[
				10.019244194030762,
				7.290809154510498,
				-0.6191864609718323
			],
			"min":[
				-9.633740425109863,
				-6.513664722442627,
				-4.970871925354004
			],
			"type":"VEC3"
		},
		{
			"bufferView":77,
			"componentType":5126,
			"count":945,
			"type":"VEC3"
		},
		{
			"bufferView":78,
			"componentType":5126,
			"count":945,
			"type":"VEC2"
		},
		{
			"bufferView":79,
			"componentType":5123,
			"count":1839,
			"type":"SCALAR"
		},
		{
			"bufferView":80,
			"componentType":5126,
			"count":2642,
			"max":[
				10.036242485046387,
				7.307807445526123,
				5.464385986328125
			],
			"min":[
				-9.783764839172363,
				-6.362175464630127,
				-3.6856141090393066
			],
			"type":"VEC3"
		},
		{
			"bufferView":81,
			"componentType":5126,
			"count":2642,
			"type":"VEC3"
		},
		{
			"bufferView":82,
			"componentType":5126,
			"count":2642,
			"type":"VEC2"
		},
		{
			"bufferView":83,
			"componentType":5123,
			"count":4656,
			"type":"SCALAR"
		},
		{
			"bufferView":84,
			"componentType":5126,
			"count":8160,
			"max":[
				10.866259574890137,
				8.13779354095459,
				4.346892833709717
			],
			"min":[
				-10.783764839172363,
				-9.086663246154785,
				-4.182497024536133
			],
			"type":"VEC3"
		},
		{
			"bufferView":85,
			"componentType":5126,
			"count":8160,
			"type":"VEC3"
		},
		{
			"bufferView":86,
			"componentType":5126,
			"count":8160,
			"type":"VEC2"
		},
		{
			"bufferView":87,
			"componentType":5123,
			"count":30534,
			"type":"SCALAR"
		},
		{
			"bufferView":88,
			"componentType":5126,
			"count":15469,
			"max":[
				10.846209526062012,
				8.13779354095459,
				5.464385986328125
			],
			"min":[
				-10.783764839172363,
				-7.362175464630127,
				-5.320655822753906
			],
			"type":"VEC3"
		},
		{
			"bufferView":89,
			"componentType":5126,
			"count":15469,
			"type":"VEC3"
		},
		{
			"bufferView":90,
			"componentType":5126,
			"count":15469,
			"type":"VEC2"
		},
		{
			"bufferView":91,
			"componentType":5123,
			"count":24528,
			"type":"SCALAR"
		},
		{
			"bufferView":92,
			"componentType":5126,
			"count":2838,
			"max":[
				9.869250297546387,
				7.137916088104248,
				5.5493855476379395
			],
			"min":[
				-9.783764839172363,
				-9.111687660217285,
				-0.9356141686439514
			],
			"type":"VEC3"
		},
		{
			"bufferView":93,
			"componentType":5126,
			"count":2838,
			"type":"VEC3"
		},
		{
			"bufferView":94,
			"componentType":5126,
			"count":2838,
			"type":"VEC2"
		},
		{
			"bufferView":95,
			"componentType":5123,
			"count":5550,
			"type":"SCALAR"
		},
		{
			"bufferView":96,
			"componentType":5126,
			"count":4554,
			"max":[
				9.553729057312012,
				6.807807445526123,
				2.9293859004974365
			],
			"min":[
				-9.453747749328613,
				-6.049675464630127,
				-0.9156141877174377
			],
			"type":"VEC3"
		},
		{
			"bufferView":97,
			"componentType":5126,
			"count":4554,
			"type":"VEC3"
		},
		{
			"bufferView":98,
			"componentType":5126,
			"count":4554,
			"type":"VEC2"
		},
		{
			"bufferView":99,
			"componentType":5123,
			"count":7482,
			"type":"SCALAR"
		},
		{
			"bufferView":100,
			"componentType":5126,
			"count":930,
			"max":[
				10.866259574890137,
				8.13779354095459,
				5.851885795593262
			],
			"min":[
				-10.783764839172363,
				-8.81166934967041,
				-5.2615156173706055
			],
			"type":"VEC3"
		},
		{
			"bufferView":101,
			"componentType":5126,
			"count":930,
			"type":"VEC3"
		},
		{
			"bufferView":102,
			"componentType":5126,
			"count":930,
			"type":"VEC2"
		},
		{
			"bufferView":103,
			"componentType":5123,
			"count":1467,
			"type":"SCALAR"
		},
		{
			"bufferView":104,
			"componentType":5126,
			"count":7835,
			"max":[
				11.066241264343262,
				8.16770076751709,
				7.749385833740234
			],
			"min":[
				-10.819470405578613,
				-9.118401527404785,
				2.966885805130005
			],
			"type":"VEC3"
		},
		{
			"bufferView":105,
			"componentType":5126,
			"count":7835,
			"type":"VEC3"
		},
		{
			"bufferView":106,
			"componentType":5126,
			"count":7835,
			"type":"VEC2"
		},
		{
			"bufferView":107,
			"componentType":5123,
			"count":14871,
			"type":"SCALAR"
		},
		{
			"bufferView":108,
			"componentType":5126,
			"count":114,
			"max":[
				4.73427152633667,
				6.837806224822998,
				3.3668859004974365
			],
			"min":[
				-8.567944526672363,
				-4.944298267364502,
				3.1168859004974365
			],
			"type":"VEC3"
		},
		{
			"bufferView":109,
			"componentType":5126,
			"count":114,
			"type":"VEC3"
		},
		{
			"bufferView":110,
			"componentType":5126,
			"count":114,
			"type":"VEC2"
		},
		{
			"bufferView":111,
			"componentType":5123,
			"count":174,
			"type":"SCALAR"
		},
		{
			"bufferView":112,
			"componentType":5126,
			"count":173,
			"max":[
				9.166247367858887,
				3.337805986404419,
				6.399385452270508
			],
			"min":[
				-3.433788776397705,
				-6.049675464630127,
				2.4143857955932617
			],
			"type":"VEC3"
		},
		{
			"bufferView":113,
			"componentType":5126,
			"count":173,
			"type":"VEC3"
		},
		{
			"bufferView":114,
			"componentType":5126,
			"count":173,
			"type":"VEC2"
		},
		{
			"bufferView":115,
			"componentType":5123,
			"count":279,
			"type":"SCALAR"
		},
		{
			"bufferView":116,
			"componentType":5126,
			"count":4,
			"max":[
				10.165789604187012,
				7.449439525604248,
				3.1744072437286377
			],
			"min":[
				6.25526762008667,
				4.310065746307373,
				3.1744072437286377
			],
			"type":"VEC3"
		},
		{
			"bufferView":117,
			"componentType":5126,
			"count":4,
			"type":"VEC3"
		},
		{
			"bufferView":118,
			"componentType":5126,
			"count":4,
			"type":"VEC2"
		},
		{
			"bufferView":119,
			"componentType":5123,
			"count":6,
			"type":"SCALAR"
		},
		{
			"bufferView":120,
			"componentType":5126,
			"count":3856,
			"max":[
				11.066241264343262,
				8.36203670501709,
				4.119696617126465
			],
			"min":[
				-11.002636909484863,
				-9.121148109436035,
				2.4143857955932617
			],
			"type":"VEC3"
		},
		{
			"bufferView":121,
			"componentType":5126,
			"count":3856,
			"type":"VEC3"
		},
		{
			"bufferView":122,
			"componentType":5126,
			"count":3856,
			"type":"VEC2"
		},
		{
			"bufferView":123,
			"componentType":5123,
			"count":7689,
			"type":"SCALAR"
		},
		{
			"bufferView":124,
			"componentType":5126,
			"count":535,
			"max":[
				10.916247367858887,
				8.187811851501465,
				-0.9641256928443909
			],
			"min":[
				-10.833752632141113,
				-7.412163257598877,
				-5.366926193237305
			],
			"type":"VEC3"
		},
		{
			"bufferView":125,
			"componentType":5126,
			"count":535,
			"type":"VEC3"
		},
		{
			"bufferView":126,
			"componentType":5126,
			"count":535,
			"type":"VEC2"
		},
		{
			"bufferView":127,
			"componentType":5123,
			"count":879,
			"type":"SCALAR"
		},
		{
			"bufferView":128,
			"componentType":5126,
			"count":39514,
			"max":[
				10.866259574890137,
				8.13779354095459,
				-0.6216252446174622
			],
			"min":[
				-10.783764839172363,
				-7.362175464630127,
				-5.3208770751953125
			],
			"type":"VEC3"
		},
		{
			"bufferView":129,
			"componentType":5126,
			"count":39514,
			"type":"VEC3"
		},
		{
			"bufferView":130,
			"componentType":5126,
			"count":39514,
			"type":"VEC2"
		},
		{
			"bufferView":131,
			"componentType":5123,
			"count":67506,
			"type":"SCALAR"
		},
		{
			"bufferView":132,
			"componentType":5126,
			"count":164157,
			"max":[
				5.26625394821167,
				6.837806224822998,
				2.5643858909606934
			],
			"min":[
				-9.483777046203613,
				-6.062187671661377,
				-4.035614013671875
			],
			"type":"VEC3"
		},
		{
			"bufferView":133,
			"componentType":5126,
			"count":164157,
			"type":"VEC3"
		},
		{
			"bufferView":134,
			"componentType":5126,
			"count":164157,
			"type":"VEC2"
		},
		{
			"bufferView":135,
			"componentType":5125,
			"count":286338,
			"type":"SCALAR"
		},
		{
			"bufferView":136,
			"componentType":5126,
			"count":860,
			"max":[
				5.621203899383545,
				4.787818431854248,
				3.141885995864868
			],
			"min":[
				-5.098095417022705,
				-5.598686695098877,
				-3.8856143951416016
			],
			"type":"VEC3"
		},
		{
			"bufferView":137,
			"componentType":5126,
			"count":860,
			"type":"VEC3"
		},
		{
			"bufferView":138,
			"componentType":5126,
			"count":860,
			"type":"VEC2"
		},
		{
			"bufferView":139,
			"componentType":5123,
			"count":1590,
			"type":"SCALAR"
		},
		{
			"bufferView":140,
			"componentType":5126,
			"count":36555,
			"max":[
				11.016253471374512,
				8.28781795501709,
				4.087385654449463
			],
			"min":[
				-10.933728218078613,
				-7.512169361114502,
				-4.182497024536133
			],
			"type":"VEC3"
		},
		{
			"bufferView":141,
			"componentType":5126,
			"count":36555,
			"type":"VEC3"
		},
		{
			"bufferView":142,
			"componentType":5126,
			"count":36555,
			"type":"VEC2"
		},
		{
			"bufferView":143,
			"componentType":5123,
			"count":66066,
			"type":"SCALAR"
		},
		{
			"bufferView":144,
			"componentType":5126,
			"count":2696,
			"max":[
				10.248888969421387,
				7.457862377166748,
				3.143310308456421
			],
			"min":[
				-1.298229694366455,
				3.507788896560669,
				-3.9356141090393066
			],
			"type":"VEC3"
		},
		{
			"bufferView":145,
			"componentType":5126,
			"count":2696,
			"type":"VEC3"
		},
		{
			"bufferView":146,
			"componentType":5126,
			"count":2696,
			"type":"VEC2"
		},
		{
			"bufferView":147,
			"componentType":5123,
			"count":4488,
			"type":"SCALAR"
		},
		{
			"bufferView":148,
			"componentType":5126,
			"count":15162,
			"max":[
				10.248888969421387,
				7.492774486541748,
				5.309724807739258
			],
			"min":[
				-1.298229694366455,
				-9.07216739654541,
				-3.9356141090393066
			],
			"type":"VEC3"
		},
		{
			"bufferView":149,
			"componentType":5126,
			"count":15162,
			"type":"VEC3"
		},
		{
			"bufferView":150,
			"componentType":5126,
			"count":15162,
			"type":"VEC2"
		},
		{
			"bufferView":151,
			"componentType":5123,
			"count":35946,
			"type":"SCALAR"
		},
		{
			"bufferView":152,
			"componentType":5126,
			"count":1648,
			"max":[
				9.834246635437012,
				7.105811595916748,
				5.306052207946777
			],
			"min":[
				-9.741772651672363,
				-9.06917667388916,
				-3.2456140518188477
			],
			"type":"VEC3"
		},
		{
			"bufferView":153,
			"componentType":5126,
			"count":1648,
			"type":"VEC3"
		},
		{
			"bufferView":154,
			"componentType":5126,
			"count":1648,
			"type":"VEC2"
		},
		{
			"bufferView":155,
			"componentType":5123,
			"count":2892,
			"type":"SCALAR"
		},
		{
			"bufferView":156,
			"componentType":5126,
			"count":11018,
			"max":[
				9.869250297546387,
				7.140815258026123,
				4.077385902404785
			],
			"min":[
				-9.786755561828613,
				-6.365166187286377,
				-3.3356142044067383
			],
			"type":"VEC3"
		},
		{
			"bufferView":157,
			"componentType":5126,
			"count":11018,
			"type":"VEC3"
		},
		{
			"bufferView":158,
			"componentType":5126,
			"count":11018,
			"type":"VEC2"
		},
		{
			"bufferView":159,
			"componentType":5123,
			"count":20886,
			"type":"SCALAR"
		},
		{
			"bufferView":160,
			"componentType":5126,
			"count":45,
			"max":[
				7.56624174118042,
				2.949042558670044,
				2.599385976791382
			],
			"min":[
				4.94624662399292,
				-1.441185712814331,
				2.404385805130005
			],
			"type":"VEC3"
		},
		{
			"bufferView":161,
			"componentType":5126,
			"count":45,
			"type":"VEC3"
		},
		{
			"bufferView":162,
			"componentType":5126,
			"count":45,
			"type":"VEC2"
		},
		{
			"bufferView":163,
			"componentType":5123,
			"count":96,
			"type":"SCALAR"
		},
		{
			"bufferView":164,
			"componentType":5126,
			"count":216,
			"max":[
				5.814563274383545,
				0.10782551765441895,
				2.7443859577178955
			],
			"min":[
				5.221240520477295,
				-1.341179609298706,
				2.40138578414917
			],
			"type":"VEC3"
		},
		{
			"bufferView":165,
			"componentType":5126,
			"count":216,
			"type":"VEC3"
		},
		{
			"bufferView":166,
			"componentType":5126,
			"count":216,
			"type":"VEC2"
		},
		{
			"bufferView":167,
			"componentType":5123,
			"count":324,
			"type":"SCALAR"
		},
		{
			"bufferView":168,
			"componentType":5126,
			"count":672,
			"max":[
				4.88118314743042,
				8.512030601501465,
				4.027840614318848
			],
			"min":[
				-11.157299995422363,
				-7.742668628692627,
				2.771416187286377
			],
			"type":"VEC3"
		},
		{
			"bufferView":169,
			"componentType":5126,
			"count":672,
			"type":"VEC3"
		},
		{
			"bufferView":170,
			"componentType":5126,
			"count":672,
			"type":"VEC2"
		},
		{
			"bufferView":171,
			"componentType":5123,
			"count":1248,
			"type":"SCALAR"
		},
		{
			"bufferView":172,
			"componentType":5126,
			"count":16,
			"max":[
				5.26625394821167,
				-8.34438419342041,
				3.5924155712127686
			],
			"min":[
				5.11622953414917,
				-9.268548011779785,
				3.18929123878479
			],
			"type":"VEC3"
		},
		{
			"bufferView":173,
			"componentType":5126,
			"count":16,
			"type":"VEC3"
		},
		{
			"bufferView":174,
			"componentType":5126,
			"count":16,
			"type":"VEC2"
		},
		{
			"bufferView":175,
			"componentType":5123,
			"count":36,
			"type":"SCALAR"
		}
	],
	"bufferViews":[
		{
			"buffer":0,
			"byteLength":58248,
			"byteOffset":0,
			"target":34962
		},
		{
			"buffer":0,
			"byteLength":58248,
			"byteOffset":58248,
			"target":34962
		},
		{
			"buffer":0,
			"byteLength":38832,
			"byteOffset":116496,
			"target":34962
		},
		{
			"buffer":0,
			"byteLength":18234,
			"byteOffset":155328,
			"target":34963
		},
		{
			"buffer":0,
			"byteLength":45276,
			"byteOffset":173564,
			"target":34962
		},
		{
			"buffer":0,
			"byteLength":45276,
			"byteOffset":218840,
			"target":34962
		},
		{
			"buffer":0,
			"byteLength":30184,
			"byteOffset":264116,
			"target":34962
		},
		{
			"buffer":0,
			"byteLength":14010,
			"byteOffset":294300,
			"target":34963
		},
		{
			"buffer":0,
			"byteLength":118548,
			"byteOffset":308312,
			"target":34962
		},
		{
			"buffer":0,
			"byteLength":118548,
			"byteOffset":426860,
			"target":34962
		},
		{
			"buffer":0,
			"byteLength":79032,
			"byteOffset":545408,
			"target":34962
		},
		{
			"buffer":0,
			"byteLength":36768,
			"byteOffset":624440,
			"target":34963
		},
		{
			"buffer":0,
			"byteLength":59340,
			"byteOffset":661208,
			"target":34962
		},
		{
			"buffer":0,
			"byteLength":59340,
			"byteOffset":720548,
			"target":34962
		},
		{
			"buffer":0,
			"byteLength":39560,
			"byteOffset":779888,
			"target":34962
		},
		{
			"buffer":0,
			"byteLength":24726,
			"byteOffset":819448,
			"target":34963
		},
		{
			"buffer":0,
			"byteLength":213792,
			"byteOffset":844176,
			"target":34962
		},
		{
			"buffer":0,
			"byteLength":213792,
			"byteOffset":1057968,
			"target":34962
		},
		{
			"buffer":0,
			"byteLength":142528,
			"byteOffset":1271760,
			"target":34962
		},
		{
			"buffer":0,
			"byteLength":72072,
			"byteOffset":1414288,
			"target":34963
		},
		{
			"buffer":0,
			"byteLength":123012,
			"byteOffset":1486360,
			"target":34962
		},
		{
			"buffer":0,
			"byteLength":123012,
			"byteOffset":1609372,
			"target":34962
		},
		{
			"buffer":0,
			"byteLength":82008,
			"byteOffset":1732384,
			"target":34962
		},
		{
			"buffer":0,
			"byteLength":33378,
			"byteOffset":1814392,
			"target":34963
		},
		{
			"buffer":0,
			"byteLength":63276,
			"byteOffset":1847772,
			"target":34962
		},
		{
			"buffer":0,
			"byteLength":63276,
			"byteOffset":1911048,
			"target":34962
		},
		{
			"buffer":0,
			"byteLength":42184,
			"byteOffset":1974324,
			"target":34962
		},
		{
			"buffer":0,
			"byteLength":17250,
			"byteOffset":2016508,
			"target":34963
		},
		{
			"buffer":0,
			"byteLength":57120,
			"byteOffset":2033760,
			"target":34962
		},
		{
			"buffer":0,
			"byteLength":57120,
			"byteOffset":2090880,
			"target":34962
		},
		{
			"buffer":0,
			"byteLength":38080,
			"byteOffset":2148000,
			"target":34962
		},
		{
			"buffer":0,
			"byteLength":14988,
			"byteOffset":2186080,
			"target":34963
		},
		{
			"buffer":0,
			"byteLength":360288,
			"byteOffset":2201068,
			"target":34962
		},
		{
			"buffer":0,
			"byteLength":360288,
			"byteOffset":2561356,
			"target":34962
		},
		{
			"buffer":0,
			"byteLength":240192,
			"byteOffset":2921644,
			"target":34962
		},
		{
			"buffer":0,
			"byteLength":102924,
			"byteOffset":3161836,
			"target":34963
		},
		{
			"buffer":0,
			"byteLength":120060,
			"byteOffset":3264760,
			"target":34962
		},
		{
			"buffer":0,
			"byteLength":120060,
			"byteOffset":3384820,
			"target":34962
		},
		{
			"buffer":0,
			"byteLength":80040,
			"byteOffset":3504880,
			"target":34962
		},
		{
			"buffer":0,
			"byteLength":32754,
			"byteOffset":3584920,
			"target":34963
		},
		{
			"buffer":0,
			"byteLength":82092,
			"byteOffset":3617676,
			"target":34962
		},
		{
			"buffer":0,
			"byteLength":82092,
			"byteOffset":3699768,
			"target":34962
		},
		{
			"buffer":0,
			"byteLength":54728,
			"byteOffset":3781860,
			"target":34962
		},
		{
			"buffer":0,
			"byteLength":23724,
			"byteOffset":3836588,
			"target":34963
		},
		{
			"buffer":0,
			"byteLength":6900,
			"byteOffset":3860312,
			"target":34962
		},
		{
			"buffer":0,
			"byteLength":6900,
			"byteOffset":3867212,
			"target":34962
		},
		{
			"buffer":0,
			"byteLength":4600,
			"byteOffset":3874112,
			"target":34962
		},
		{
			"buffer":0,
			"byteLength":2238,
			"byteOffset":3878712,
			"target":34963
		},
		{
			"buffer":0,
			"byteLength":112284,
			"byteOffset":3880952,
			"target":34962
		},
		{
			"buffer":0,
			"byteLength":112284,
			"byteOffset":3993236,
			"target":34962
		},
		{
			"buffer":0,
			"byteLength":74856,
			"byteOffset":4105520,
			"target":34962
		},
		{
			"buffer":0,
			"byteLength":35034,
			"byteOffset":4180376,
			"target":34963
		},
		{
			"buffer":0,
			"byteLength":231612,
			"byteOffset":4215412,
			"target":34962
		},
		{
			"buffer":0,
			"byteLength":231612,
			"byteOffset":4447024,
			"target":34962
		},
		{
			"buffer":0,
			"byteLength":154408,
			"byteOffset":4678636,
			"target":34962
		},
		{
			"buffer":0,
			"byteLength":89760,
			"byteOffset":4833044,
			"target":34963
		},
		{
			"buffer":0,
			"byteLength":149520,
			"byteOffset":4922804,
			"target":34962
		},
		{
			"buffer":0,
			"byteLength":149520,
			"byteOffset":5072324,
			"target":34962
		},
		{
			"buffer":0,
			"byteLength":99680,
			"byteOffset":5221844,
			"target":34962
		},
		{
			"buffer":0,
			"byteLength":46926,
			"byteOffset":5321524,
			"target":34963
		},
		{
			"buffer":0,
			"byteLength":170052,
			"byteOffset":5368452,
			"target":34962
		},
		{
			"buffer":0,
			"byteLength":170052,
			"byteOffset":5538504,
			"target":34962
		},
		{
			"buffer":0,
			"byteLength":113368,
			"byteOffset":5708556,
			"target":34962
		},
		{
			"buffer":0,
			"byteLength":55584,
			"byteOffset":5821924,
			"target":34963
		},
		{
			"buffer":0,
			"byteLength":15960,
			"byteOffset":5877508,
			"target":34962
		},
		{
			"buffer":0,
			"byteLength":15960,
			"byteOffset":5893468,
			"target":34962
		},
		{
			"buffer":0,
			"byteLength":10640,
			"byteOffset":5909428,
			"target":34962
		},
		{
			"buffer":0,
			"byteLength":4494,
			"byteOffset":5920068,
			"target":34963
		},
		{
			"buffer":0,
			"byteLength":89544,
			"byteOffset":5924564,
			"target":34962
		},
		{
			"buffer":0,
			"byteLength":89544,
			"byteOffset":6014108,
			"target":34962
		},
		{
			"buffer":0,
			"byteLength":59696,
			"byteOffset":6103652,
			"target":34962
		},
		{
			"buffer":0,
			"byteLength":29220,
			"byteOffset":6163348,
			"target":34963
		},
		{
			"buffer":0,
			"byteLength":14568,
			"byteOffset":6192568,
			"target":34962
		},
		{
			"buffer":0,
			"byteLength":14568,
			"byteOffset":6207136,
			"target":34962
		},
		{
			"buffer":0,
			"byteLength":9712,
			"byteOffset":6221704,
			"target":34962
		},
		{
			"buffer":0,
			"byteLength":4416,
			"byteOffset":6231416,
			"target":34963
		},
		{
			"buffer":0,
			"byteLength":11340,
			"byteOffset":6235832,
			"target":34962
		},
		{
			"buffer":0,
			"byteLength":11340,
			"byteOffset":6247172,
			"target":34962
		},
		{
			"buffer":0,
			"byteLength":7560,
			"byteOffset":6258512,
			"target":34962
		},
		{
			"buffer":0,
			"byteLength":3678,
			"byteOffset":6266072,
			"target":34963
		},
		{
			"buffer":0,
			"byteLength":31704,
			"byteOffset":6269752,
			"target":34962
		},
		{
			"buffer":0,
			"byteLength":31704,
			"byteOffset":6301456,
			"target":34962
		},
		{
			"buffer":0,
			"byteLength":21136,
			"byteOffset":6333160,
			"target":34962
		},
		{
			"buffer":0,
			"byteLength":9312,
			"byteOffset":6354296,
			"target":34963
		},
		{
			"buffer":0,
			"byteLength":97920,
			"byteOffset":6363608,
			"target":34962
		},
		{
			"buffer":0,
			"byteLength":97920,
			"byteOffset":6461528,
			"target":34962
		},
		{
			"buffer":0,
			"byteLength":65280,
			"byteOffset":6559448,
			"target":34962
		},
		{
			"buffer":0,
			"byteLength":61068,
			"byteOffset":6624728,
			"target":34963
		},
		{
			"buffer":0,
			"byteLength":185628,
			"byteOffset":6685796,
			"target":34962
		},
		{
			"buffer":0,
			"byteLength":185628,
			"byteOffset":6871424,
			"target":34962
		},
		{
			"buffer":0,
			"byteLength":123752,
			"byteOffset":7057052,
			"target":34962
		},
		{
			"buffer":0,
			"byteLength":49056,
			"byteOffset":7180804,
			"target":34963
		},
		{
			"buffer":0,
			"byteLength":34056,
			"byteOffset":7229860,
			"target":34962
		},
		{
			"buffer":0,
			"byteLength":34056,
			"byteOffset":7263916,
			"target":34962
		},
		{
			"buffer":0,
			"byteLength":22704,
			"byteOffset":7297972,
			"target":34962
		},
		{
			"buffer":0,
			"byteLength":11100,
			"byteOffset":7320676,
			"target":34963
		},
		{
			"buffer":0,
			"byteLength":54648,
			"byteOffset":7331776,
			"target":34962
		},
		{
			"buffer":0,
			"byteLength":54648,
			"byteOffset":7386424,
			"target":34962
		},
		{
			"buffer":0,
			"byteLength":36432,
			"byteOffset":7441072,
			"target":34962
		},
		{
			"buffer":0,
			"byteLength":14964,
			"byteOffset":7477504,
			"target":34963
		},
		{
			"buffer":0,
			"byteLength":11160,
			"byteOffset":7492468,
			"target":34962
		},
		{
			"buffer":0,
			"byteLength":11160,
			"byteOffset":7503628,
			"target":34962
		},
		{
			"buffer":0,
			"byteLength":7440,
			"byteOffset":7514788,
			"target":34962
		},
		{
			"buffer":0,
			"byteLength":2934,
			"byteOffset":7522228,
			"target":34963
		},
		{
			"buffer":0,
			"byteLength":94020,
			"byteOffset":7525164,
			"target":34962
		},
		{
			"buffer":0,
			"byteLength":94020,
			"byteOffset":7619184,
			"target":34962
		},
		{
			"buffer":0,
			"byteLength":62680,
			"byteOffset":7713204,
			"target":34962
		},
		{
			"buffer":0,
			"byteLength":29742,
			"byteOffset":7775884,
			"target":34963
		},
		{
			"buffer":0,
			"byteLength":1368,
			"byteOffset":7805628,
			"target":34962
		},
		{
			"buffer":0,
			"byteLength":1368,
			"byteOffset":7806996,
			"target":34962
		},
		{
			"buffer":0,
			"byteLength":912,
			"byteOffset":7808364,
			"target":34962
		},
		{
			"buffer":0,
			"byteLength":348,
			"byteOffset":7809276,
			"target":34963
		},
		{
			"buffer":0,
			"byteLength":2076,
			"byteOffset":7809624,
			"target":34962
		},
		{
			"buffer":0,
			"byteLength":2076,
			"byteOffset":7811700,
			"target":34962
		},
		{
			"buffer":0,
			"byteLength":1384,
			"byteOffset":7813776,
			"target":34962
		},
		{
			"buffer":0,
			"byteLength":558,
			"byteOffset":7815160,
			"target":34963
		},
		{
			"buffer":0,
			"byteLength":48,
			"byteOffset":7815720,
			"target":34962
		},
		{
			"buffer":0,
			"byteLength":48,
			"byteOffset":7815768,
			"target":34962
		},
		{
			"buffer":0,
			"byteLength":32,
			"byteOffset":7815816,
			"target":34962
		},
		{
			"buffer":0,
			"byteLength":12,
			"byteOffset":7815848,
			"target":34963
		},
		{
			"buffer":0,
			"byteLength":46272,
			"byteOffset":7815860,
			"target":34962
		},
		{
			"buffer":0,
			"byteLength":46272,
			"byteOffset":7862132,
			"target":34962
		},
		{
			"buffer":0,
			"byteLength":30848,
			"byteOffset":7908404,
			"target":34962
		},
		{
			"buffer":0,
			"byteLength":15378,
			"byteOffset":7939252,
			"target":34963
		},
		{
			"buffer":0,
			"byteLength":6420,
			"byteOffset":7954632,
			"target":34962
		},
		{
			"buffer":0,
			"byteLength":6420,
			"byteOffset":7961052,
			"target":34962
		},
		{
			"buffer":0,
			"byteLength":4280,
			"byteOffset":7967472,
			"target":34962
		},
		{
			"buffer":0,
			"byteLength":1758,
			"byteOffset":7971752,
			"target":34963
		},
		{
			"buffer":0,
			"byteLength":474168,
			"byteOffset":7973512,
			"target":34962
		},
		{
			"buffer":0,
			"byteLength":474168,
			"byteOffset":8447680,
			"target":34962
		},
		{
			"buffer":0,
			"byteLength":316112,
			"byteOffset":8921848,
			"target":34962
		},
		{
			"buffer":0,
			"byteLength":135012,
			"byteOffset":9237960,
			"target":34963
		},
		{
			"buffer":0,
			"byteLength":1969884,
			"byteOffset":9372972,
			"target":34962
		},
		{
			"buffer":0,
			"byteLength":1969884,
			"byteOffset":11342856,
			"target":34962
		},
		{
			"buffer":0,
			"byteLength":1313256,
			"byteOffset":13312740,
			"target":34962
		},
		{
			"buffer":0,
			"byteLength":1145352,
			"byteOffset":14625996,
			"target":34963
		},
		{
			"buffer":0,
			"byteLength":10320,
			"byteOffset":15771348,
			"target":34962
		},
		{
			"buffer":0,
			"byteLength":10320,
			"byteOffset":15781668,
			"target":34962
		},
		{
			"buffer":0,
			"byteLength":6880,
			"byteOffset":15791988,
			"target":34962
		},
		{
			"buffer":0,
			"byteLength":3180,
			"byteOffset":15798868,
			"target":34963
		},
		{
			"buffer":0,
			"byteLength":438660,
			"byteOffset":15802048,
			"target":34962
		},
		{
			"buffer":0,
			"byteLength":438660,
			"byteOffset":16240708,
			"target":34962
		},
		{
			"buffer":0,
			"byteLength":292440,
			"byteOffset":16679368,
			"target":34962
		},
		{
			"buffer":0,
			"byteLength":132132,
			"byteOffset":16971808,
			"target":34963
		},
		{
			"buffer":0,
			"byteLength":32352,
			"byteOffset":17103940,
			"target":34962
		},
		{
			"buffer":0,
			"byteLength":32352,
			"byteOffset":17136292,
			"target":34962
		},
		{
			"buffer":0,
			"byteLength":21568,
			"byteOffset":17168644,
			"target":34962
		},
		{
			"buffer":0,
			"byteLength":8976,
			"byteOffset":17190212,
			"target":34963
		},
		{
			"buffer":0,
			"byteLength":181944,
			"byteOffset":17199188,
			"target":34962
		},
		{
			"buffer":0,
			"byteLength":181944,
			"byteOffset":17381132,
			"target":34962
		},
		{
			"buffer":0,
			"byteLength":121296,
			"byteOffset":17563076,
			"target":34962
		},
		{
			"buffer":0,
			"byteLength":71892,
			"byteOffset":17684372,
			"target":34963
		},
		{
			"buffer":0,
			"byteLength":19776,
			"byteOffset":17756264,
			"target":34962
		},
		{
			"buffer":0,
			"byteLength":19776,
			"byteOffset":17776040,
			"target":34962
		},
		{
			"buffer":0,
			"byteLength":13184,
			"byteOffset":17795816,
			"target":34962
		},
		{
			"buffer":0,
			"byteLength":5784,
			"byteOffset":17809000,
			"target":34963
		},
		{
			"buffer":0,
			"byteLength":132216,
			"byteOffset":17814784,
			"target":34962
		},
		{
			"buffer":0,
			"byteLength":132216,
			"byteOffset":17947000,
			"target":34962
		},
		{
			"buffer":0,
			"byteLength":88144,
			"byteOffset":18079216,
			"target":34962
		},
		{
			"buffer":0,
			"byteLength":41772,
			"byteOffset":18167360,
			"target":34963
		},
		{
			"buffer":0,
			"byteLength":540,
			"byteOffset":18209132,
			"target":34962
		},
		{
			"buffer":0,
			"byteLength":540,
			"byteOffset":18209672,
			"target":34962
		},
		{
			"buffer":0,
			"byteLength":360,
			"byteOffset":18210212,
			"target":34962
		},
		{
			"buffer":0,
			"byteLength":192,
			"byteOffset":18210572,
			"target":34963
		},
		{
			"buffer":0,
			"byteLength":2592,
			"byteOffset":18210764,
			"target":34962
		},
		{
			"buffer":0,
			"byteLength":2592,
			"byteOffset":18213356,
			"target":34962
		},
		{
			"buffer":0,
			"byteLength":1728,
			"byteOffset":18215948,
			"target":34962
		},
		{
			"buffer":0,
			"byteLength":648,
			"byteOffset":18217676,
			"target":34963
		},
		{
			"buffer":0,
			"byteLength":8064,
			"byteOffset":18218324,
			"target":34962
		},
		{
			"buffer":0,
			"byteLength":8064,
			"byteOffset":18226388,
			"target":34962
		},
		{
			"buffer":0,
			"byteLength":5376,
			"byteOffset":18234452,
			"target":34962
		},
		{
			"buffer":0,
			"byteLength":2496,
			"byteOffset":18239828,
			"target":34963
		},
		{
			"buffer":0,
			"byteLength":192,
			"byteOffset":18242324,
			"target":34962
		},
		{
			"buffer":0,
			"byteLength":192,
			"byteOffset":18242516,
			"target":34962
		},
		{
			"buffer":0,
			"byteLength":128,
			"byteOffset":18242708,
			"target":34962
		},
		{
			"buffer":0,
			"byteLength":72,
			"byteOffset":18242836,
			"target":34963
		}
	],
	"buffers":[
		{
			"byteLength":18242908,
			"uri":"CASA_BACAU.bin"
		}
	]
}
