{
	"asset":{
		"generator":"Khronos glTF Blender I/O v4.2.60",
		"version":"2.0"
	},
	"scene":0,
	"scenes":[
		{
			"name":"Scene",
			"nodes":[
				0
			]
		}
	],
	"nodes":[
		{
			"mesh":0,
			"name":"Site.cleaning.003",
			"translation":[
				-20.842483520507812,
				-2.0531864166259766,
				-19.514360427856445
			]
		}
	],
	"animations":[
		{
			"channels":[
				{
					"sampler":0,
					"target":{
						"node":0,
						"path":"weights"
					}
				}
			],
			"name":"Key.360Action",
			"samplers":[
				{
					"input":14,
					"interpolation":"LINEAR",
					"output":15
				}
			]
		}
	],
	"materials":[
		{
			"doubleSided":true,
			"name":"Material.016",
			"pbrMetallicRoughness":{
				"baseColorFactor":[
					0.12563620507717133,
					0.059672676026821136,
					0.02980312518775463,
					1
				],
				"metallicFactor":0
			}
		}
	],
	"meshes":[
		{
			"extras":{
				"targetNames":[
					"Key 2",
					"Key 1",
					"Key 6",
					"Key 4",
					"Key 5"
				]
			},
			"name":"Plane.006",
			"primitives":[
				{
					"attributes":{
						"POSITION":0,
						"NORMAL":1,
						"TEXCOORD_0":2
					},
					"indices":3,
					"material":0,
					"targets":[
						{
							"POSITION":4,
							"NORMAL":5
						},
						{
							"POSITION":6,
							"NORMAL":7
						},
						{
							"POSITION":8,
							"NORMAL":9
						},
						{
							"POSITION":10,
							"NORMAL":11
						},
						{
							"POSITION":12,
							"NORMAL":13
						}
					]
				}
			],
			"weights":[
				0,
				0,
				0,
				0,
				0
			]
		}
	],
	"accessors":[
		{
			"bufferView":0,
			"componentType":5126,
			"count":1098,
			"max":[
				121.25540161132812,
				1.2993285655975342,
				98.90805053710938
			],
			"min":[
				-121.25540161132812,
				-2.4356701374053955,
				-98.90805053710938
			],
			"type":"VEC3"
		},
		{
			"bufferView":1,
			"componentType":5126,
			"count":1098,
			"type":"VEC3"
		},
		{
			"bufferView":2,
			"componentType":5126,
			"count":1098,
			"type":"VEC2"
		},
		{
			"bufferView":3,
			"componentType":5123,
			"count":6288,
			"type":"SCALAR"
		},
		{
			"componentType":5126,
			"count":1098,
			"max":[
				1.603804349899292,
				2.6149637699127197,
				0
			],
			"min":[
				-3.357609748840332,
				-0.00035130977630615234,
				0
			],
			"sparse":{
				"count":555,
				"indices":{
					"bufferView":4,
					"componentType":5123
				},
				"values":{
					"bufferView":5
				}
			},
			"type":"VEC3"
		},
		{
			"componentType":5126,
			"count":1098,
			"sparse":{
				"count":621,
				"indices":{
					"bufferView":6,
					"componentType":5123
				},
				"values":{
					"bufferView":7
				}
			},
			"type":"VEC3"
		},
		{
			"componentType":5126,
			"count":1098,
			"max":[
				1.603804349899292,
				0.6000001430511475,
				4.76837158203125e-07
			],
			"min":[
				-3.357609748840332,
				-0.00035130977630615234,
				0
			],
			"sparse":{
				"count":249,
				"indices":{
					"bufferView":8,
					"componentType":5123
				},
				"values":{
					"bufferView":9
				}
			},
			"type":"VEC3"
		},
		{
			"componentType":5126,
			"count":1098,
			"sparse":{
				"count":621,
				"indices":{
					"bufferView":10,
					"componentType":5123
				},
				"values":{
					"bufferView":11
				}
			},
			"type":"VEC3"
		},
		{
			"componentType":5126,
			"count":1098,
			"max":[
				1.603804349899292,
				0.8446295261383057,
				0
			],
			"min":[
				-3.357609748840332,
				-0.00035130977630615234,
				0
			],
			"sparse":{
				"count":475,
				"indices":{
					"bufferView":12,
					"componentType":5123
				},
				"values":{
					"bufferView":13
				}
			},
			"type":"VEC3"
		},
		{
			"componentType":5126,
			"count":1098,
			"sparse":{
				"count":621,
				"indices":{
					"bufferView":14,
					"componentType":5123
				},
				"values":{
					"bufferView":15
				}
			},
			"type":"VEC3"
		},
		{
			"componentType":5126,
			"count":1098,
			"max":[
				3.519253730773926,
				2.616011619567871,
				4.2271728515625
			],
			"min":[
				-4.816383361816406,
				-0.0009656548500061035,
				-2.136648178100586
			],
			"sparse":{
				"count":635,
				"indices":{
					"bufferView":16,
					"componentType":5123
				},
				"values":{
					"bufferView":17
				}
			},
			"type":"VEC3"
		},
		{
			"componentType":5126,
			"count":1098,
			"sparse":{
				"count":725,
				"indices":{
					"bufferView":18,
					"componentType":5123
				},
				"values":{
					"bufferView":19
				}
			},
			"type":"VEC3"
		},
		{
			"componentType":5126,
			"count":1098,
			"max":[
				1.603804349899292,
				3.736046552658081,
				4.2271728515625
			],
			"min":[
				-4.816383361816406,
				-0.0009656548500061035,
				-2.136648178100586
			],
			"sparse":{
				"count":916,
				"indices":{
					"bufferView":20,
					"componentType":5123
				},
				"values":{
					"bufferView":21
				}
			},
			"type":"VEC3"
		},
		{
			"componentType":5126,
			"count":1098,
			"sparse":{
				"count":746,
				"indices":{
					"bufferView":22,
					"componentType":5123
				},
				"values":{
					"bufferView":23
				}
			},
			"type":"VEC3"
		},
		{
			"bufferView":24,
			"componentType":5126,
			"count":2,
			"max":[
				19
			],
			"min":[
				1.5
			],
			"type":"SCALAR"
		},
		{
			"bufferView":25,
			"componentType":5126,
			"count":10,
			"type":"SCALAR"
		}
	],
	"bufferViews":[
		{
			"buffer":0,
			"byteLength":13176,
			"byteOffset":0,
			"target":34962
		},
		{
			"buffer":0,
			"byteLength":13176,
			"byteOffset":13176,
			"target":34962
		},
		{
			"buffer":0,
			"byteLength":8784,
			"byteOffset":26352,
			"target":34962
		},
		{
			"buffer":0,
			"byteLength":12576,
			"byteOffset":35136,
			"target":34963
		},
		{
			"buffer":0,
			"byteLength":1110,
			"byteOffset":47712
		},
		{
			"buffer":0,
			"byteLength":6660,
			"byteOffset":48824
		},
		{
			"buffer":0,
			"byteLength":1242,
			"byteOffset":55484
		},
		{
			"buffer":0,
			"byteLength":7452,
			"byteOffset":56728
		},
		{
			"buffer":0,
			"byteLength":498,
			"byteOffset":64180
		},
		{
			"buffer":0,
			"byteLength":2988,
			"byteOffset":64680
		},
		{
			"buffer":0,
			"byteLength":1242,
			"byteOffset":67668
		},
		{
			"buffer":0,
			"byteLength":7452,
			"byteOffset":68912
		},
		{
			"buffer":0,
			"byteLength":950,
			"byteOffset":76364
		},
		{
			"buffer":0,
			"byteLength":5700,
			"byteOffset":77316
		},
		{
			"buffer":0,
			"byteLength":1242,
			"byteOffset":83016
		},
		{
			"buffer":0,
			"byteLength":7452,
			"byteOffset":84260
		},
		{
			"buffer":0,
			"byteLength":1270,
			"byteOffset":91712
		},
		{
			"buffer":0,
			"byteLength":7620,
			"byteOffset":92984
		},
		{
			"buffer":0,
			"byteLength":1450,
			"byteOffset":100604
		},
		{
			"buffer":0,
			"byteLength":8700,
			"byteOffset":102056
		},
		{
			"buffer":0,
			"byteLength":1832,
			"byteOffset":110756
		},
		{
			"buffer":0,
			"byteLength":10992,
			"byteOffset":112588
		},
		{
			"buffer":0,
			"byteLength":1492,
			"byteOffset":123580
		},
		{
			"buffer":0,
			"byteLength":8952,
			"byteOffset":125072
		},
		{
			"buffer":0,
			"byteLength":8,
			"byteOffset":134024
		},
		{
			"buffer":0,
			"byteLength":40,
			"byteOffset":134032
		}
	],
	"buffers":[
		{
			"byteLength":134072,
			"uri":"Houses.bin"
		}
	]
}
